# xmcd
#
# Track frame offsets:
#	150
#	26083
#	49840
#	69600
#	85568
#	103118
#	111491
#	130483
#	143342
#	159134
#	190658
#	213792
#	230708
#	248430
#	271042
#	284538
#	307542
#	327966
#
# Disc length: 4446 seconds
#
# Revision: 0
# Processed by: cddbd v1.4PL0 Copyright (c) Steve Scherf et al.
# Submitted via: dBpowerAMP V4.0
#
DISCID=ee115c12
DTITLE=Tindersticks - B-Side
DYEAR=1900
DGENRE=
TTITLE0=Kathleen (b-side)
TTITLE1=A Marriage Made In Heaven (b-side)
TTITLE2=Macking Bird (b-side)
TTITLE3=Summat Moon (b-side)
TTITLE4=Instrumental (b-side)
TTITLE5=Fruitless (b-side)
TTITLE6=Make Believe (b-side)
TTITLE7=Shadow (b-side)
TTITLE8=Manalow (b-side)
TTITLE9=Raindrops (b-side)
TTITLE10=For Those (b-side)
TTITLE11=Rumba (b-side)
TTITLE12=Here (b-side)
TTITLE13=Rented Rooms (swing version)
TTITLE14=Waiting Round you (b-side)
TTITLE15=I've Been Loving You Too Long (b-side)
TTITLE16=Joe Stumble (b-side)
TTITLE17=Benn (b-side)
EXTD=
EXTT0=
EXTT1=
EXTT2=
EXTT3=
EXTT4=
EXTT5=
EXTT6=
EXTT7=
EXTT8=
EXTT9=
EXTT10=
EXTT11=
EXTT12=
EXTT13=
EXTT14=
EXTT15=
EXTT16=
EXTT17=
PLAYORDER=
